<?xml version="1.0" encoding="utf-8"?>
<!-- Generator: Adobe Illustrator 21.1.0, SVG Export Plug-In . SVG Version: 6.00 Build 0)  -->
<svg version="1.1"
	 id="svg8" inkscape:version="1.0 (b51213c273, 2020-08-10)" sodipodi:docname="pyrolab_icon.svg" xmlns:cc="http://creativecommons.org/ns#" xmlns:dc="http://purl.org/dc/elements/1.1/" xmlns:inkscape="http://www.inkscape.org/namespaces/inkscape" xmlns:rdf="http://www.w3.org/1999/02/22-rdf-syntax-ns#" xmlns:sodipodi="http://sodipodi.sourceforge.net/DTD/sodipodi-0.dtd" xmlns:svg="http://www.w3.org/2000/svg"
	 xmlns="http://www.w3.org/2000/svg" xmlns:xlink="http://www.w3.org/1999/xlink" x="0px" y="0px" viewBox="0 0 300 300"
	 style="enable-background:new 0 0 300 300;" xml:space="preserve">
<style type="text/css">
	.st0{fill:#E6E6E6;stroke:#000000;stroke-width:9.959580e-02;}
	.st1{fill:#FFFFFF;stroke:#000000;stroke-width:8.796030e-02;}
	.st2{fill:#FF2A2A;stroke:#000000;stroke-width:9.769050e-02;}
	.st3{fill:#2A7FFF;stroke:#000000;stroke-width:4.703610e-02;}
	.st4{fill:#2A7FFF;stroke:#000000;stroke-width:4.703600e-02;}
	.st5{fill:#999999;stroke:#000000;stroke-width:4.703600e-02;}
	.st6{fill:#999999;stroke:#000000;stroke-width:0.4402;}
	.st7{fill:#FFFFFF;stroke:#000000;stroke-width:0.1101;}
	.st8{stroke:#000000;stroke-width:4.703600e-02;}
	.st9{fill:#0045BA;stroke:#000000;stroke-width:4.703600e-02;}
	.st10{fill:#F40606;stroke:#000000;}
	.st11{fill:#FA6F00;stroke:#000000;}
	.st12{fill:#0002F5;stroke:#000000;}
</style>
<sodipodi:namedview  bordercolor="#666666" borderopacity="1.0" id="base" inkscape:current-layer="layer1" inkscape:cx="118.40128" inkscape:cy="151.86633" inkscape:document-rotation="0" inkscape:document-units="px" inkscape:pageopacity="0.0" inkscape:pageshadow="2" inkscape:window-height="872" inkscape:window-maximized="0" inkscape:window-width="1428" inkscape:window-x="152" inkscape:window-y="115" inkscape:zoom="1.979899" pagecolor="#ffffff" showgrid="false" units="px">
	</sodipodi:namedview>
<g id="layer1" inkscape:groupmode="layer" inkscape:label="Layer 1">
	<path id="rect331" class="st0" d="M27.6,130.2H170c4.1,0,7.3,3.3,7.3,7.3v44.9c0,4.1-3.3,7.3-7.3,7.3H27.6c-4.1,0-7.3-3.3-7.3-7.3
		v-44.9C20.2,133.5,23.5,130.2,27.6,130.2z"/>
	<path id="rect1328" class="st1" d="M33.5,140.2h71.1c1.8,0,3.3,1.5,3.3,3.3v33c0,1.8-1.5,3.3-3.3,3.3H33.5c-1.8,0-3.3-1.5-3.3-3.3
		v-33C30.2,141.7,31.7,140.2,33.5,140.2z"/>
	<circle id="path1330" class="st2" cx="125" cy="151.8" r="6.6"/>
	<circle id="path1330-3" class="st3" cx="148.3" cy="151.5" r="3.2"/>
	<circle id="path1330-3-6" class="st4" cx="158.3" cy="151.5" r="3.2"/>
	<circle id="path1330-3-6-7" class="st4" cx="168.3" cy="151.5" r="3.2"/>
	<circle id="path1330-3-5" class="st5" cx="123.2" cy="173.3" r="3.2"/>
	<circle id="path1330-3-5-3" class="st5" cx="138.3" cy="173.3" r="3.2"/>
	<circle id="path1330-3-5-3-5" class="st5" cx="168.3" cy="173.3" r="3.2"/>
	<circle id="path1330-3-5-3-5-6" class="st5" cx="153.3" cy="173.3" r="3.2"/>
	<path id="rect1455" class="st6" d="M165.7,20.2c-3,0-5.5,2.4-5.5,5.5v58.6c0,3,2.4,5.5,5.5,5.5h49.5V95c0,0,0,0.1,0,0.1h-23
		c-1.2,0-2.1,0.9-2.1,2.1v0.6c0,1.2,0.9,2.1,2.1,2.1h55.6c1.2,0,2.1-0.9,2.1-2.1v-0.6c0-1.2-0.9-2.1-2.1-2.1h-23c0,0,0-0.1,0-0.1
		v-5.2h49.5c3,0,5.5-2.4,5.5-5.5V25.7c0-3-2.4-5.5-5.5-5.5H165.7z"/>
	<path id="rect1466" class="st7" d="M167.4,25.2h105.3c1.2,0,2.2,1,2.2,2.2v55.3c0,1.2-1,2.2-2.2,2.2H167.4c-1.2,0-2.2-1-2.2-2.2
		V27.4C165.2,26.2,166.2,25.2,167.4,25.2z"/>
	<circle id="path1330-3-5-9" class="st8" cx="193.3" cy="163.3" r="3.2"/>
	<circle id="path1330-3-5-9-1" class="st8" cx="208.3" cy="163.3" r="3.2"/>
	<circle id="path1330-3-5-9-19" class="st8" cx="223.3" cy="163.3" r="3.2"/>
	<circle id="path1330-3-5-9-0" class="st8" cx="223.3" cy="148.3" r="3.2"/>
	<circle id="path1330-3-5-9-8" class="st8" cx="223.3" cy="133.3" r="3.2"/>
	<circle id="path1330-3-5-9-9" class="st8" cx="223.3" cy="118.3" r="3.2"/>
</g>
<g>
	<path class="st9" d="M24.1,222.1c3.3-0.8,8.4-1.4,13.4-1.4c4.6,0,9.9,0.8,13.6,3.4c3.4,2.4,5.5,5.9,5.5,10.9c0,6.5-3,11.3-7,14.4
		c-4.2,3.3-10.1,4.7-16.3,4.7c-1.8,0-3.3-0.2-4.5-0.3l-3.5,18.5H14.6L24.1,222.1z M30.5,244.9c1.1,0.2,2.4,0.4,4.2,0.4
		c6.6,0,10.9-4.3,10.9-9.3c0-4.9-3.6-6.5-7.8-6.5c-2.1,0-3.5,0.2-4.4,0.4L30.5,244.9z"/>
	<path class="st9" d="M71.6,235.1l2.3,16.2c0.5,3.8,0.9,6.5,1.2,8.8h0.2c0.8-2.2,1.7-4.6,3.3-8.7l6.8-16.3h11.6l-13.3,26.7
		c-4.9,9.9-9.3,16.6-14.3,21.3c-4.3,4.1-9.5,5.9-11.9,6.3l-2.4-9.3c1.7-0.5,4.2-1.4,6.3-3c2.5-1.7,4.6-4,6-6.5
		c0.4-0.5,0.4-1,0.2-1.8L60,235.1H71.6z"/>
	<path class="st9" d="M95.5,272.3l4.2-22.1c1.1-5.6,1.5-11.9,1.9-15h9.5c-0.2,2.5-0.5,5-0.7,7.6h0.2c2.6-4.9,6.8-8.4,11.9-8.4
		c0.7,0,1.4,0,2.1,0.1l-2.1,10.6c-0.5-0.1-1.1-0.1-1.7-0.1c-7,0-10.3,6.2-11.6,13.5l-2.6,13.8H95.5z"/>
	<path class="st9" d="M162.8,249.6c0,13.6-9.3,23.6-22.2,23.6c-9.4,0-15.7-6.2-15.7-15.4c0-12.9,9-23.5,22.2-23.5
		C157.1,234.3,162.8,241.1,162.8,249.6z M136.2,257.6c0,4.3,2.1,7.2,5.9,7.2c6,0,9.3-8.7,9.3-15.1c0-3.4-1.4-7.1-5.9-7.1
		C139.4,242.6,136.2,251.8,136.2,257.6z"/>
	<path class="st9" d="M176.3,221.1h10.9l-7.9,41.7H199l-1.8,9.6h-30.6L176.3,221.1z"/>
	<path class="st9" d="M227.4,272.3c0.1-2.2,0.3-4.7,0.5-7.4h-0.2c-3.4,6.2-8.1,8.2-12.5,8.2c-6.7,0-11.2-5.2-11.2-12.9
		c0-12.5,8.3-25.9,26.6-25.9c4.4,0,9.2,0.8,12.3,1.8l-4,19.5c-0.9,4.8-1.6,12.1-1.4,16.7H227.4z M230.6,242.9
		c-0.8-0.2-1.9-0.3-3-0.3c-7.1,0-12.2,8.7-12.2,15.6c0,3.6,1.4,6.2,4.5,6.2c3.3,0,7.3-3.7,9-12.8L230.6,242.9z"/>
	<path class="st9" d="M266.4,218.3l-4.4,21.2h0.2c2.7-3.3,6.9-5.2,11.5-5.2c7.8,0,11.2,6.3,11.2,12.9c0,12.1-7.9,25.9-24.6,25.9
		c-8.8,0-13.2-3.8-13.2-10.4c0-2.3,0.4-4.6,0.8-6.8l7.5-37.6H266.4z M258.7,256.6c-0.2,1.2-0.5,2.5-0.4,4.1c0.1,2.7,1.7,4.1,4.2,4.1
		c6.3,0,10.9-8.8,10.9-15.4c0-3.6-1.5-6.4-4.9-6.4c-4,0-7.8,4-9.1,10.5L258.7,256.6z"/>
</g>
<path class="st10" d="M82.5,130.1c-0.5,0-0.8-0.6-0.5-0.9c2.9-3.7,12.2-17.9,2.3-38.2c-11.6-23.7-7.2-37.3-5.6-43
	c2.9-10.7,8.9-29.4,18.8-35.2c0.4-0.2,0.8,0,0.9,0.4c0.4,3.3,2,15.5,6.6,25.5c5.3,11.7,20.3,27.3,23.3,49.8
	c2.8,20.9-6.8,38.9-8.2,41.4c-0.1,0.2-0.3,0.3-0.5,0.3L82.5,130.1z"/>
<path class="st10" d="M153.6,130.2c0.2,0,0.4-0.2,0.3-0.5c-4.9-13.5-10.1-20.4-8.1-41.3c2-21.1,3.2-29.1,1.6-34.8
	c-1.5-5.4-7.4-17-15.4-21.3c-0.3-0.2-0.6,0.2-0.5,0.5c1.2,2,3.2,7.1,0.9,16.2c-2.8,11.4-7.8,20.4-8.6,21.7c-0.1,0.1-0.1,0.2,0,0.3
	c1.2,2.1,13.9,25.5-3.2,58.7c-0.1,0.2,0,0.5,0.3,0.5H153.6z"/>
<path class="st10" d="M69.4,130.1C69.4,130.1,69.3,130.1,69.4,130.1c-5.8-12.9-13.6-24.9-12.8-42.3c0.8-17.5,13.5-32.3,12.8-44.5
	c-0.7-11-4.2-18.4-4.9-19.8c0-0.1,0-0.2,0.1-0.1c1.9,0.7,14.9,5.3,17.2,14.2c0,0,0,0,0,0.1c-0.3,0.9-7.3,22.1-5.3,32.4
	c2,10.5,14.8,31,12.1,41.7c-2.7,10.7-3.3,14.7-7.4,18.3c0,0,0,0-0.1,0H69.4z"/>
<path class="st10" d="M45.2,130.1c-0.1,0-0.2,0-0.2-0.1c-11.4-17-17.4-27-16.9-42.2c0.5-14.9,10.5-32.7,18.5-36
	c0.2-0.1,0.4,0.1,0.3,0.3c-1,2.7-4.8,14.8,1.8,24.6c1.1,1.6,2.8,5.1,7.7,8c0.1,0.1,0.1,0.1,0.1,0.2c-0.2,1.4-1.4,12.1,2.9,22.7
	c4.4,10.8,8,19.4,9.6,22.1c0.1,0.2,0,0.4-0.2,0.4H45.2z"/>
<path class="st11" d="M55.8,130.1c-0.1,0-0.1,0-0.2-0.1c-7.5-10.3-16.9-30-17.4-37.2c-0.5-6.9-0.5-9.5,1.3-14.8
	c0.1-0.2,0.3-0.2,0.4,0c0.9,2.4,4.6,11.9,8.7,20.1c4.7,9.5,9.1,12.8,13.2,15.3c0,0,0.1,0.1,0.1,0.1c0.4,0.9,4.9,11.4,7.1,16.1
	c0.1,0.1,0,0.3-0.2,0.3L55.8,130.1z"/>
<path class="st11" d="M85.9,122.3c0,0-11.2-4.1-15.1-15.4s-3.1-21.6-1.6-26.7s7.1-13.6,7.1-13.6s-0.7,3.2,9,26.4
	c0,0,3.4,8.5,3.8,14.8C89.4,114,85.9,122.3,85.9,122.3z"/>
<path class="st11" d="M90.8,130.1C90.7,130.1,90.7,130,90.8,130.1c0.8-1.1,9.3-12.3,7.1-27.5C95.7,86.7,88.1,81.9,87,68
	c-1.1-13.6,3.3-30.2,5.5-36c0-0.1,0.1,0,0.1,0c-0.2,2-0.5,11.8,6.9,23.6c8.4,13.3,18.3,21.6,18.8,34.5s0.8,19.5-3,29.8l-3.7,10.3
	c0,0,0,0,0,0L90.8,130.1z"/>
<path class="st11" d="M146.3,130.1c0.2,0,0.2-0.2,0.2-0.3c-0.9-1.8-5.6-11.3-5.7-21.8c-0.1-11.6,1.8-26.1,2.9-36.6
	c1-8.6-2.2-15.9-3.3-18.2c-0.1-0.2-0.4-0.1-0.4,0.1c0,2.6-0.4,10.8-3.9,15.6c-3.9,5.4-7.6,12.8-8,13.6c0,0,0,0.1,0,0.1
	c0.4,1.2,5.4,19.3-7,47.3c-0.1,0.1,0,0.3,0.2,0.3L146.3,130.1z"/>
<path class="st12" d="M105.7,130.1C105.7,130.1,105.8,130.1,105.7,130.1c0.5-1,5.9-12.9,5.9-28.6c0-16.4-14.3-36.9-14.3-36.9
	s-2.4-3.6-3.4-8c0-0.1-0.2-0.1-0.2,0c-0.4,1.6-1.5,6.7-0.6,10.9c1,5,8,19.9,9.5,26.1s3.5,15,1.7,20.8c-1.6,5.3-4.4,14.3-4.8,15.6
	c0,0.1,0,0.1,0.1,0.1H105.7z"/>
<path class="st12" d="M139.1,130.1c0.1,0,0.2-0.1,0.1-0.2c-2.5-7.3-5.1-10.6-4.2-20.2c0.9-9.2,1.4-16.4,2.9-25.6
	c0-0.2-0.2-0.3-0.3-0.1c-0.9,2.2-2.8,6.4-5.4,9.2l-3.6,3.8c0,0-0.1,0.1,0,0.2c0.3,0.6,1.7,5.5-7.7,32.9c0,0.1,0,0.2,0.1,0.2
	L139.1,130.1z"/>
<path class="st12" d="M89,110c0,0.2-0.2,0.3-0.3,0.1c-7.9-8.3-10.4-12.7-10.2-17.8c0.1-4.9,0.4-7.3,1.5-10c0.1-0.1,0.3-0.2,0.3,0
	c0.8,1.4,4.1,7.2,5.8,13c2,6.6,2.4,7.9,2.7,10.2C89,107.2,89,109.1,89,110z"/>
<path class="st12" d="M65.5,130c-4.5-3.9-12.6-16-14.3-18.5c0-0.1,0-0.1,0.1-0.1c1.8,1.6,8.8,7.8,13.6,9.1c0,0,0,0,0,0l4.4,9.4
	c0,0,0,0.1-0.1,0.1L65.5,130C65.5,130,65.5,130,65.5,130z"/>
</svg>
