<?xml version="1.0" encoding="utf-8"?>
<!-- Generator: Adobe Illustrator 21.1.0, SVG Export Plug-In . SVG Version: 6.00 Build 0)  -->
<svg version="1.1"
	 id="svg8" inkscape:version="1.0 (b51213c273, 2020-08-10)" sodipodi:docname="pyrolab_icon.svg" xmlns:cc="http://creativecommons.org/ns#" xmlns:dc="http://purl.org/dc/elements/1.1/" xmlns:inkscape="http://www.inkscape.org/namespaces/inkscape" xmlns:rdf="http://www.w3.org/1999/02/22-rdf-syntax-ns#" xmlns:sodipodi="http://sodipodi.sourceforge.net/DTD/sodipodi-0.dtd" xmlns:svg="http://www.w3.org/2000/svg"
	 xmlns="http://www.w3.org/2000/svg" xmlns:xlink="http://www.w3.org/1999/xlink" x="0px" y="0px" viewBox="0 0 200 200"
	 style="enable-background:new 0 0 200 200;" xml:space="preserve">
<style type="text/css">
	.st0{fill:#E6E6E6;stroke:#000000;stroke-width:9.959580e-02;}
	.st1{fill:#FFFFFF;stroke:#000000;stroke-width:8.796030e-02;}
	.st2{fill:#FF2A2A;stroke:#000000;stroke-width:9.769050e-02;}
	.st3{fill:#2A7FFF;stroke:#000000;stroke-width:4.703610e-02;}
	.st4{fill:#2A7FFF;stroke:#000000;stroke-width:4.703600e-02;}
	.st5{fill:#999999;stroke:#000000;stroke-width:4.703600e-02;}
	.st6{fill:#999999;stroke:#000000;stroke-width:0.4402;}
	.st7{fill:#FFFFFF;stroke:#000000;stroke-width:0.1101;}
	.st8{stroke:#000000;stroke-width:4.703600e-02;}
	.st9{fill:#0045BA;stroke:#000000;stroke-width:4.703600e-02;}
	.st10{fill:#F40606;stroke:#000000;}
	.st11{fill:#FA6F00;stroke:#000000;}
	.st12{fill:#0002F5;stroke:#000000;}
</style>
<sodipodi:namedview  bordercolor="#666666" borderopacity="1.0" id="base" inkscape:current-layer="layer1" inkscape:cx="118.40128" inkscape:cy="151.86633" inkscape:document-rotation="0" inkscape:document-units="px" inkscape:pageopacity="0.0" inkscape:pageshadow="2" inkscape:window-height="872" inkscape:window-maximized="0" inkscape:window-width="1428" inkscape:window-x="152" inkscape:window-y="115" inkscape:zoom="1.979899" pagecolor="#ffffff" showgrid="false" units="px">
	</sodipodi:namedview>
<g id="layer1" inkscape:groupmode="layer" inkscape:label="Layer 1">
	<path id="rect331" class="st0" d="M18.4,87.2h94.8c2.7,0,4.9,2.2,4.9,4.9v29.9c0,2.7-2.2,4.9-4.9,4.9H18.4c-2.7,0-4.9-2.2-4.9-4.9
		V92C13.5,89.4,15.7,87.2,18.4,87.2z"/>
	<path id="rect1328" class="st1" d="M22.3,93.8h47.3c1.2,0,2.2,1,2.2,2.2v22c0,1.2-1,2.2-2.2,2.2H22.3c-1.2,0-2.2-1-2.2-2.2V96
		C20.1,94.8,21.1,93.8,22.3,93.8z"/>
	<circle id="path1330" class="st2" cx="83.3" cy="101.6" r="4.4"/>
	<circle id="path1330-3" class="st3" cx="98.8" cy="101.4" r="2.1"/>
	<circle id="path1330-3-6" class="st4" cx="105.4" cy="101.4" r="2.1"/>
	<circle id="path1330-3-6-7" class="st4" cx="112.1" cy="101.4" r="2.1"/>
	<circle id="path1330-3-5" class="st5" cx="82.1" cy="115.9" r="2.1"/>
	<circle id="path1330-3-5-3" class="st5" cx="92.1" cy="115.9" r="2.1"/>
	<circle id="path1330-3-5-3-5" class="st5" cx="112.1" cy="115.9" r="2.1"/>
	<circle id="path1330-3-5-3-5-6" class="st5" cx="102.1" cy="115.9" r="2.1"/>
	<path id="rect1455" class="st6" d="M110.4,13.9c-2,0-3.7,1.6-3.7,3.7v39c0,2,1.6,3.7,3.7,3.7h33v3.5v0.1H128
		c-0.8,0-1.4,0.6-1.4,1.4v0.4c0,0.8,0.6,1.4,1.4,1.4h37c0.8,0,1.4-0.6,1.4-1.4v-0.4c0-0.8-0.6-1.4-1.4-1.4h-15.3v-0.1v-3.5h33
		c2,0,3.7-1.6,3.7-3.7v-39c0-2-1.6-3.7-3.7-3.7H110.4z"/>
	<path id="rect1466" class="st7" d="M111.5,17.2h70.1c0.8,0,1.5,0.7,1.5,1.5v36.8c0,0.8-0.7,1.5-1.5,1.5h-70.1
		c-0.8,0-1.5-0.7-1.5-1.5V18.7C110,17.9,110.7,17.2,111.5,17.2z"/>
	<circle id="path1330-3-5-9" class="st8" cx="128.8" cy="109.2" r="2.1"/>
	<circle id="path1330-3-5-9-1" class="st8" cx="138.7" cy="109.2" r="2.1"/>
	<circle id="path1330-3-5-9-19" class="st8" cx="148.7" cy="109.2" r="2.1"/>
	<circle id="path1330-3-5-9-0" class="st8" cx="148.7" cy="99.2" r="2.1"/>
	<circle id="path1330-3-5-9-8" class="st8" cx="148.7" cy="89.2" r="2.1"/>
	<circle id="path1330-3-5-9-9" class="st8" cx="148.7" cy="79.2" r="2.1"/>
</g>
<g>
	<path class="st9" d="M16.1,148.4c2.2-0.5,5.6-0.9,8.9-0.9c3.1,0,6.6,0.5,9.1,2.3c2.3,1.6,3.7,3.9,3.7,7.3c0,4.3-2,7.5-4.7,9.6
		c-2.8,2.2-6.7,3.1-10.9,3.1c-1.2,0-2.2-0.1-3-0.2l-2.3,12.3H9.8L16.1,148.4z M20.3,163.6c0.7,0.1,1.6,0.3,2.8,0.3
		c4.4,0,7.3-2.9,7.3-6.2c0-3.3-2.4-4.3-5.2-4.3c-1.4,0-2.3,0.1-2.9,0.3L20.3,163.6z"/>
	<path class="st9" d="M47.7,157l1.5,10.8c0.3,2.5,0.6,4.3,0.8,5.9h0.1c0.5-1.5,1.1-3.1,2.2-5.8l4.5-10.9h7.7l-8.9,17.8
		c-3.3,6.6-6.2,11.1-9.5,14.2c-2.9,2.7-6.3,3.9-7.9,4.2l-1.6-6.2c1.1-0.3,2.8-0.9,4.2-2c1.7-1.1,3.1-2.7,4-4.3
		c0.3-0.3,0.3-0.7,0.1-1.2L40,157H47.7z"/>
	<path class="st9" d="M63.6,181.8l2.8-14.7c0.7-3.7,1-7.9,1.3-10H74c-0.1,1.7-0.3,3.3-0.5,5.1h0.1c1.7-3.3,4.5-5.6,7.9-5.6
		c0.5,0,0.9,0,1.4,0.1l-1.4,7.1c-0.3-0.1-0.7-0.1-1.1-0.1c-4.7,0-6.9,4.1-7.7,9l-1.7,9.2H63.6z"/>
	<path class="st9" d="M108.4,166.7c0,9.1-6.2,15.7-14.8,15.7c-6.3,0-10.5-4.1-10.5-10.3c0-8.6,6-15.6,14.8-15.6
		C104.6,156.5,108.4,161,108.4,166.7z M90.7,172c0,2.9,1.4,4.8,3.9,4.8c4,0,6.2-5.8,6.2-10.1c0-2.3-0.9-4.7-3.9-4.7
		C92.9,162,90.7,168.1,90.7,172z"/>
	<path class="st9" d="M117.4,147.7h7.3l-5.3,27.8h13.1l-1.2,6.4H111L117.4,147.7z"/>
	<path class="st9" d="M151.5,181.8c0.1-1.5,0.2-3.1,0.3-4.9h-0.1c-2.3,4.1-5.4,5.5-8.3,5.5c-4.5,0-7.5-3.5-7.5-8.6
		c0-8.3,5.5-17.2,17.7-17.2c2.9,0,6.1,0.5,8.2,1.2l-2.7,13c-0.6,3.2-1.1,8.1-0.9,11.1L151.5,181.8L151.5,181.8z M153.6,162.2
		c-0.5-0.1-1.3-0.2-2-0.2c-4.7,0-8.1,5.8-8.1,10.4c0,2.4,0.9,4.1,3,4.1c2.2,0,4.9-2.5,6-8.5L153.6,162.2z"/>
	<path class="st9" d="M177.4,145.8l-2.9,14.1h0.1c1.8-2.2,4.6-3.5,7.7-3.5c5.2,0,7.5,4.2,7.5,8.6c0,8.1-5.3,17.2-16.4,17.2
		c-5.9,0-8.8-2.5-8.8-6.9c0-1.5,0.3-3.1,0.5-4.5l5-25L177.4,145.8L177.4,145.8z M172.3,171.3c-0.1,0.8-0.3,1.7-0.3,2.7
		c0.1,1.8,1.1,2.7,2.8,2.7c4.2,0,7.3-5.9,7.3-10.3c0-2.4-1-4.3-3.3-4.3c-2.7,0-5.2,2.7-6.1,7L172.3,171.3z"/>
</g>
<path class="st10" d="M55,87.1c-0.3,0-0.5-0.4-0.3-0.6c1.9-2.5,8.1-11.9,1.5-25.4c-7.7-15.8-4.8-24.8-3.7-28.6
	C54.4,25.3,58.4,12.9,65,9c0.3-0.1,0.5,0,0.6,0.3c0.3,2.2,1.3,10.3,4.4,17c3.5,7.8,13.5,18.2,15.5,33.2C87.3,73.3,80.9,85.3,80,87
	c-0.1,0.1-0.2,0.2-0.3,0.2L55,87.1z"/>
<path class="st10" d="M102.3,87.2c0.1,0,0.3-0.1,0.2-0.3c-3.3-9-6.7-13.6-5.4-27.5c1.3-14.1,2.1-19.4,1.1-23.2
	c-1-3.6-4.9-11.3-10.3-14.2c-0.2-0.1-0.4,0.1-0.3,0.3c0.8,1.3,2.1,4.7,0.6,10.8c-1.9,7.6-5.2,13.6-5.7,14.5c-0.1,0.1-0.1,0.1,0,0.2
	c0.8,1.4,9.3,17-2.1,39.1c-0.1,0.1,0,0.3,0.2,0.3H102.3z"/>
<path class="st10" d="M46.2,87.1C46.2,87.1,46.2,87.1,46.2,87.1c-3.9-8.6-9.1-16.6-8.5-28.2c0.5-11.7,9-21.5,8.5-29.6
	C45.8,22,43.4,17,43,16.1C43,16,43,16,43,16c1.3,0.5,9.9,3.5,11.5,9.5c0,0,0,0,0,0.1c-0.2,0.6-4.9,14.7-3.5,21.6
	c1.3,7,9.9,20.6,8.1,27.8c-1.8,7.1-2.2,9.8-4.9,12.2c0,0,0,0-0.1,0H46.2z"/>
<path class="st10" d="M30.1,87.1c-0.1,0-0.1,0-0.1-0.1c-7.6-11.3-11.6-18-11.3-28.1c0.3-9.9,7-21.8,12.3-24c0.1-0.1,0.3,0.1,0.2,0.2
	c-0.7,1.8-3.2,9.9,1.2,16.4c0.7,1.1,1.9,3.4,5.1,5.3c0.1,0.1,0.1,0.1,0.1,0.1c-0.1,0.9-0.9,8.1,1.9,15.1c2.9,7.2,5.3,12.9,6.4,14.7
	c0.1,0.1,0,0.3-0.1,0.3H30.1z"/>
<path class="st11" d="M37.2,87.1c-0.1,0-0.1,0-0.1-0.1c-5-6.9-11.3-20-11.6-24.8c-0.3-4.6-0.3-6.3,0.9-9.9c0.1-0.1,0.2-0.1,0.3,0
	c0.6,1.6,3.1,7.9,5.8,13.4c3.1,6.3,6.1,8.5,8.8,10.2l0.1,0.1c0.3,0.6,3.3,7.6,4.7,10.7c0.1,0.1,0,0.2-0.1,0.2L37.2,87.1z"/>
<path class="st11" d="M57.2,81.9c0,0-7.5-2.7-10.1-10.3c-2.6-7.5-2.1-14.4-1.1-17.8c1-3.4,4.7-9.1,4.7-9.1s-0.5,2.1,6,17.6
	c0,0,2.3,5.7,2.5,9.9C59.6,76.4,57.2,81.9,57.2,81.9z"/>
<path class="st11" d="M60.5,87.1C60.4,87.1,60.4,87,60.5,87.1c0.5-0.7,6.2-8.2,4.7-18.3c-1.5-10.6-6.5-13.8-7.3-23
	c-0.7-9.1,2.2-20.1,3.7-24c0-0.1,0.1,0,0.1,0c-0.1,1.3-0.3,7.9,4.6,15.7c5.6,8.9,12.2,14.4,12.5,23s0.5,13-2,19.8l-2.5,6.9l0,0
	L60.5,87.1z"/>
<path class="st11" d="M97.5,87.1c0.1,0,0.1-0.1,0.1-0.2c-0.6-1.2-3.7-7.5-3.8-14.5C93.7,64.7,95,55,95.7,48
	c0.7-5.7-1.5-10.6-2.2-12.1c-0.1-0.1-0.3-0.1-0.3,0.1c0,1.7-0.3,7.2-2.6,10.4c-2.6,3.6-5.1,8.5-5.3,9.1v0.1
	c0.3,0.8,3.6,12.9-4.7,31.5c-0.1,0.1,0,0.2,0.1,0.2L97.5,87.1z"/>
<path class="st12" d="M70.4,87.1C70.4,87.1,70.5,87.1,70.4,87.1c0.3-0.7,3.9-8.6,3.9-19c0-10.9-9.5-24.6-9.5-24.6s-1.6-2.4-2.3-5.3
	c0-0.1-0.1-0.1-0.1,0c-0.3,1.1-1,4.5-0.4,7.3c0.7,3.3,5.3,13.3,6.3,17.4c1,4.1,2.3,10,1.1,13.9c-1.1,3.5-2.9,9.5-3.2,10.4
	c0,0.1,0,0.1,0.1,0.1L70.4,87.1L70.4,87.1z"/>
<path class="st12" d="M92.7,87.1c0.1,0,0.1-0.1,0.1-0.1c-1.7-4.9-3.4-7.1-2.8-13.5c0.6-6.1,0.9-10.9,1.9-17c0-0.1-0.1-0.2-0.2-0.1
	c-0.6,1.5-1.9,4.3-3.6,6.1l-2.4,2.5c0,0-0.1,0.1,0,0.1c0.2,0.4,1.1,3.7-5.1,21.9c0,0.1,0,0.1,0.1,0.1L92.7,87.1z"/>
<path class="st12" d="M59.3,73.7c0,0.1-0.1,0.2-0.2,0.1c-5.3-5.5-6.9-8.5-6.8-11.9c0.1-3.3,0.3-4.9,1-6.7c0.1-0.1,0.2-0.1,0.2,0
	c0.5,0.9,2.7,4.8,3.9,8.7c1.3,4.4,1.6,5.3,1.8,6.8C59.3,71.9,59.3,73.1,59.3,73.7z"/>
<path class="st12" d="M43.6,87c-3-2.6-8.4-10.7-9.5-12.3c0-0.1,0-0.1,0.1-0.1c1.2,1.1,5.9,5.2,9.1,6.1l0,0l2.9,6.3
	c0,0,0,0.1-0.1,0.1H43.6L43.6,87z"/>
</svg>
